<svg xmlns="http://www.w3.org/2000/svg" xmlns:xlink="http://www.w3.org/1999/xlink" viewBox="0,0,256,256" width="64px" height="64px" fill-rule="nonzero"><g fill="none" fill-rule="nonzero" stroke="none" stroke-width="1" stroke-linecap="butt" stroke-linejoin="miter" stroke-miterlimit="10" stroke-dasharray="" stroke-dashoffset="0" font-family="none" font-weight="none" font-size="none" text-anchor="none" style="mix-blend-mode: normal"><g transform="scale(4,4)"><path d="M32,61c-16.01626,0 -29,-12.98374 -29,-29c0,-16.01626 12.98374,-29 29,-29c16.01626,0 29,12.98374 29,29c0,16.01626 -12.98374,29 -29,29z" fill="#7ccf00"></path><path d="M7.33,32c-1.17962,-0.01474 -2.30559,0.49199 -3.07682,1.3847c-0.77123,0.8927 -1.10907,2.08033 -0.92318,3.2453c2.26646,14.05219 14.39621,24.38231 28.63,24.38231c14.23379,0 26.36354,-10.33012 28.63,-24.38231c0.1859,-1.16497 -0.15194,-2.3526 -0.92318,-3.2453c-0.77123,-0.8927 -1.8972,-1.39944 -3.07682,-1.3847z" fill="#7ccf00"></path><path d="M55,32c0,12.70255 -10.29745,23 -23,23c-1.52769,-0.00162 -3.05158,-0.15234 -4.55,-0.45c-3.72948,-0.75457 -7.21149,-2.42855 -10.13,-4.87c-0.73274,-0.59592 -1.42431,-1.24072 -2.07,-1.93c-0.97748,-1.04088 -1.85781,-2.16891 -2.63,-3.37c-0.52813,-0.82868 -1.00244,-1.69046 -1.42,-2.58c-0.56368,-1.17155 -1.01568,-2.39362 -1.35,-3.65c-0.56832,-2.00042 -0.85442,-4.07042 -0.85,-6.15c0,-12.70255 10.29745,-23 23,-23c2.07958,-0.00442 4.14958,0.28168 6.15,0.85c1.25636,0.33438 2.47843,0.78638 3.65,1.35c0.88954,0.41756 1.75132,0.89187 2.58,1.42c1.20116,0.7721 2.32919,1.65243 3.37,2.63c0.68932,0.64564 1.33413,1.33722 1.93,2.07c2.44181,2.91828 4.11583,6.40038 4.87,10.13c0.29766,1.49842 0.44838,3.02231 0.45,4.55z" fill="#7ccf00"></path><path d="M54.55,27.45l-27.1,27.1c-3.72948,-0.75457 -7.21149,-2.42855 -10.13,-4.87l32.36,-32.36c2.44181,2.91828 4.11583,6.40038 4.87,10.13zM47.75,15.25l-32.5,32.5c-0.97748,-1.04088 -1.85781,-2.16891 -2.63,-3.37l31.76,-31.76c1.20116,0.7721 2.32919,1.65243 3.37,2.63zM41.8,11.2l-30.6,30.6c-0.56368,-1.17155 -1.01568,-2.39362 -1.35,-3.65l28.3,-28.3c1.25636,0.33438 2.47843,0.78638 3.65,1.35z" fill="#a1e340"></path><path d="M27.54,60.68l-3.54,-1.14l-2.93,-0.95l0.94,-13.58l1.99,0.72l2.95,1.07z" fill="#7ccf00"></path><path d="M24,45.73v13.81l-2.93,-0.95l0.94,-13.58z" fill="#7ccf00"></path><path d="M43.55,58.67l-3.55,1.01l-3.51,1l1.24,-17.66h4.46z" fill="#7ccf00"></path><path d="M40,43.02v16.66l-3.51,1l1.24,-17.66z" fill="#7ccf00"></path><path d="M35.16,20.13h9.67l2.86,13.03l-5.5,6.77v3.09h-3.93l-0.53,-3.4l-5.73,-5.41zM26,19.54c-4.83,1.2 -8.58,5 -8.82,9.85c-0.24,4.85 0,13.75 0,13.75l9.42,3.66l0.35,-26.69z" fill="#d3d3d3"></path><path d="M32,2c-16.56854,0 -30,13.43146 -30,30c0,16.56854 13.43146,30 30,30c16.56854,0 30,-13.43146 30,-30c0,-16.56854 -13.43146,-30 -30,-30zM20,41h-2v-3h2c0.55228,0 1,-0.44772 1,-1c0,-0.55228 -0.44772,-1 -1,-1h-2v-3h2c0.55228,0 1,-0.44772 1,-1c0,-0.55228 -0.44772,-1 -1,-1h-2c0.01175,-1.0159 0.16317,-2.02536 0.45,-3h1.55c0.55228,0 1,-0.44772 1,-1c0,-0.55228 -0.44772,-1 -1,-1h-0.74c1.21831,-2.31442 3.22143,-4.119 5.65,-5.09l1.09,-0.43v25l-6.31,-2.48h0.31c0.55228,0 1,-0.44772 1,-1c0,-0.55228 -0.44772,-1 -1,-1zM22.42,58l0.51,-11.52l3.07,1.21l0.57,11.78c-1.446,-0.28324 -2.86716,-0.68117 -4.25,-1.19c0.0471,-0.08783 0.08081,-0.18221 0.1,-0.28zM28.6,59.81v0l-0.19,-4c2.52158,0.35341 5.08317,0.30617 7.59,-0.14l-0.27,4.08c-2.35323,0.30911 -4.73677,0.30911 -7.09,0zM38,33c0.55228,0 1,-0.44772 1,-1v-11h2v11c0,0.55228 0.44772,1 1,1c0.55228,0 1,-0.44772 1,-1v-11h1.18l2.37,11.82c0.21565,1.07045 -0.16737,2.17353 -1,2.88l-4.19,3.54v0.06c-0.18246,0.18864 -0.28923,0.43777 -0.3,0.7c0,0 0,0 0,0.07l0.07,1.93h-2.26l0.13,-1.93c0,0 0,0 0,-0.07c0.00668,-0.0665 0.00668,-0.1335 0,-0.2c-0.04375,-0.18778 -0.13698,-0.36042 -0.27,-0.5v-0.05l-4.23,-3.66c-0.82561,-0.70262 -1.20791,-1.79601 -1,-2.86l2.32,-11.73h1.18v11c0,0.55228 0.44772,1 1,1zM38.74,44h2.52l0.93,14.07c-1.44648,0.57089 -2.9384,1.01913 -4.46,1.34zM44.14,57.23l-0.29,-4.37c6.95711,-3.95398 11.48589,-11.11533 12.07599,-19.09575c0.5901,-7.98042 -2.8361,-15.72999 -9.13599,-20.66425c-0.4349,-0.29119 -1.02077,-0.19777 -1.34354,0.21423c-0.32278,0.412 -0.27327,1.00319 0.11354,1.35577c5.6627,4.41319 8.81584,11.31179 8.44739,18.48164c-0.36845,7.16984 -4.21214,13.70889 -10.29739,17.51836l-0.71,-10.23l3.81,-3.21c1.39616,-1.17638 2.04015,-3.02019 1.68,-4.81l-2.35,-11.81c-0.18874,-0.95023 -1.03138,-1.62856 -2,-1.61h-8.32c-0.96552,-0.01947 -1.80705,0.65375 -2,1.6l-2.34,11.72c-0.35654,1.7676 0.26629,3.59024 1.63,4.77l3.89,3.34l-0.86,13.18c-2.56877,0.48071 -5.20189,0.50778 -7.78,0.08l-0.36,-6.69v-26.52c0.00064,-0.66346 -0.32777,-1.28406 -0.8767,-1.65669c-0.54893,-0.37263 -1.24692,-0.44879 -1.8633,-0.20331l-1.08,0.43c-4.94963,1.95799 -8.19533,6.74719 -8.18,12.07v10.53c-0.00119,1.22941 0.74784,2.33512 1.89,2.79l3.11,1.23l-0.23,5.23c-8.50134,-5.06485 -12.57489,-15.18246 -9.95477,-24.72502c2.62012,-9.54256 11.28904,-16.16145 21.18477,-16.17498c1.17222,0.00103 2.34253,0.09466 3.5,0.28c0.55228,0.08837 1.07163,-0.28772 1.16,-0.84c0.08837,-0.55228 -0.28772,-1.07163 -0.84,-1.16c-6.94745,-1.12009 -14.03643,0.86541 -19.39138,5.43116c-5.35495,4.56576 -8.43623,11.25168 -8.42862,18.28884c-0.01133,8.83692 4.84839,16.96081 12.64,21.13l-0.19,4.36c-11.95396,-5.42235 -18.53655,-18.42107 -15.83317,-31.26594c2.70337,-12.84487 13.96698,-22.08762 27.09246,-22.23167c13.12548,-0.14405 24.58923,8.84926 27.57386,21.63171c2.98464,12.78245 -3.31108,25.9225 -15.14315,31.60591z" fill="#ffffff"></path><path d="M43.06,10.7c-0.86164,-0.4504 -1.74995,-0.84781 -2.66,-1.19c-0.50623,-0.15711 -1.04712,0.10807 -1.23294,0.60449c-0.18582,0.49641 0.04797,1.05158 0.53294,1.26551c0.83461,0.30986 1.64947,0.67054 2.44,1.08c0.31898,0.19616 0.72083,0.19766 1.04127,0.0039c0.32044,-0.19377 0.50577,-0.55033 0.48023,-0.92392c-0.02554,-0.3736 -0.25767,-0.70162 -0.6015,-0.84997z" fill="#ffffff"></path></g></g></svg>